<?xml version="1.0" standalone="no"?>
<!DOCTYPE svg PUBLIC "-//W3C//DTD SVG 20010904//EN"
 "http://www.w3.org/TR/2001/REC-SVG-20010904/DTD/svg10.dtd">
<svg version="1.0" xmlns="http://www.w3.org/2000/svg"
 width="200.000000pt" height="200.000000pt" viewBox="0 0 200.000000 200.000000"
 preserveAspectRatio="xMidYMid meet">
<metadata>
Created by potrace 1.14, written by Peter Selinger 2001-2017
</metadata>
<g transform="translate(0.000000,200.000000) scale(0.100000,-0.100000)"
fill="#000000" stroke="none">
<path d="M0 1000 l0 -1000 1000 0 1000 0 0 1000 0 1000 -1000 0 -1000 0 0
-1000z m848 490 c12 -25 32 -58 45 -74 l23 -28 87 11 c128 17 194 -8 212 -80
6 -24 12 -27 71 -32 35 -4 74 -11 86 -18 42 -21 88 -72 94 -105 7 -36 -26
-122 -57 -150 -19 -17 -21 -16 -52 13 -73 70 -164 86 -249 44 -56 -27 -61 -47
-27 -113 34 -67 104 -118 163 -118 17 0 18 -2 6 -10 -25 -16 -112 -11 -156 9
-43 19 -83 64 -105 116 l-13 30 -4 -32 c-4 -42 13 -104 39 -137 12 -15 44 -38
72 -52 72 -36 148 -95 188 -145 26 -33 29 -41 14 -35 -11 4 -35 10 -54 13
l-33 6 35 -49 c46 -64 76 -141 84 -217 l6 -61 -34 23 c-74 49 -240 122 -344
152 -170 48 -260 105 -352 223 l-30 40 -54 -27 c-29 -14 -55 -24 -58 -21 -3 2
1 43 7 89 13 102 50 189 111 264 l44 54 -47 -5 c-25 -3 -46 -1 -46 4 0 5 11
30 24 56 25 50 65 97 104 124 l23 16 -22 63 c-27 78 -32 238 -10 309 l14 45 8
-50 c11 -68 34 -124 74 -181 l35 -48 -6 65 c-5 47 -1 89 11 145 l18 79 16 -80
c9 -44 26 -100 39 -125z"/>
</g>
</svg>
